<svg width="68" height="12" viewBox="0 0 68 12" fill="none" xmlns="http://www.w3.org/2000/svg">
<rect opacity="0.35" x="43.5" y="0.833984" width="21" height="10.3333" rx="2.16667" stroke="black"/>
<path opacity="0.4" d="M66 4.00098V8.00098C66.8047 7.6622 67.328 6.87411 67.328 6.00098C67.328 5.12784 66.8047 4.33975 66 4.00098" fill="black"/>
<rect x="45" y="2.33398" width="18" height="7.33333" rx="1.33333" fill="black"/>
<path fill-rule="evenodd" clip-rule="evenodd" d="M30.3305 2.60838C32.5463 2.60848 34.6775 3.45992 36.2835 4.98672C36.4044 5.10459 36.5977 5.1031 36.7168 4.98338L37.8728 3.81672C37.9331 3.75599 37.9667 3.67374 37.9662 3.58816C37.9657 3.50258 37.9311 3.42073 37.8701 3.36072C33.655 -0.678832 27.0052 -0.678832 22.7901 3.36072C22.7291 3.42068 22.6944 3.50251 22.6939 3.58809C22.6933 3.67367 22.7269 3.75595 22.7871 3.81672L23.9435 4.98338C24.0625 5.10328 24.2559 5.10477 24.3768 4.98672C25.9829 3.45982 28.1143 2.60838 30.3305 2.60838ZM30.3305 6.40405C31.5479 6.40397 32.722 6.85651 33.6245 7.67372C33.7465 7.7897 33.9388 7.78718 34.0578 7.66805L35.2125 6.50138C35.2733 6.44019 35.307 6.35717 35.3061 6.27091C35.3052 6.18464 35.2698 6.10233 35.2078 6.04238C32.4596 3.486 28.2037 3.486 25.4555 6.04238C25.3934 6.10233 25.358 6.18468 25.3571 6.27097C25.3563 6.35727 25.3902 6.44028 25.4511 6.50138L26.6055 7.66805C26.7244 7.78718 26.9167 7.7897 27.0388 7.67372C27.9407 6.85705 29.1138 6.40455 30.3305 6.40405ZM32.6434 8.95787C32.6452 9.04437 32.6112 9.12778 32.5495 9.18838L30.5521 11.204C30.4936 11.2633 30.4137 11.2966 30.3305 11.2966C30.2472 11.2966 30.1673 11.2633 30.1088 11.204L28.1111 9.18838C28.0494 9.12773 28.0155 9.0443 28.0173 8.9578C28.0191 8.87129 28.0566 8.78937 28.1208 8.73138C29.3964 7.6525 31.2645 7.6525 32.5401 8.73138C32.6043 8.78942 32.6417 8.87136 32.6434 8.95787Z" fill="black"/>
<path fill-rule="evenodd" clip-rule="evenodd" d="M16.6665 0.666992H15.6665C15.1142 0.666992 14.6665 1.11471 14.6665 1.66699V10.3337C14.6665 10.8859 15.1142 11.3337 15.6665 11.3337H16.6665C17.2188 11.3337 17.6665 10.8859 17.6665 10.3337V1.66699C17.6665 1.11471 17.2188 0.666992 16.6665 0.666992ZM10.9998 3.00033H11.9998C12.5521 3.00033 12.9998 3.44804 12.9998 4.00033V10.3337C12.9998 10.8859 12.5521 11.3337 11.9998 11.3337H10.9998C10.4476 11.3337 9.99984 10.8859 9.99984 10.3337V4.00033C9.99984 3.44804 10.4476 3.00033 10.9998 3.00033ZM7.33317 5.33366H6.33317C5.78089 5.33366 5.33317 5.78137 5.33317 6.33366V10.3337C5.33317 10.8859 5.78089 11.3337 6.33317 11.3337H7.33317C7.88546 11.3337 8.33317 10.8859 8.33317 10.3337V6.33366C8.33317 5.78137 7.88546 5.33366 7.33317 5.33366ZM2.6665 7.33366H1.6665C1.11422 7.33366 0.666504 7.78137 0.666504 8.33366V10.3337C0.666504 10.8859 1.11422 11.3337 1.6665 11.3337H2.6665C3.21879 11.3337 3.6665 10.8859 3.6665 10.3337V8.33366C3.6665 7.78137 3.21879 7.33366 2.6665 7.33366Z" fill="black"/>
</svg>
